<svg width="119" height="27" viewBox="0 0 119 27" fill="none" xmlns="http://www.w3.org/2000/svg">
<path d="M16.184 8.504C16.184 9.54933 15.932 10.5293 15.428 11.444C14.9427 12.3587 14.168 13.096 13.104 13.656C12.0587 14.216 10.7333 14.496 9.128 14.496H5.852V22H1.932V2.456H9.128C10.64 2.456 11.928 2.71733 12.992 3.24C14.056 3.76267 14.8493 4.48133 15.372 5.396C15.9133 6.31067 16.184 7.34667 16.184 8.504ZM8.96 11.332C10.0427 11.332 10.8453 11.0893 11.368 10.604C11.8907 10.1 12.152 9.4 12.152 8.504C12.152 6.6 11.088 5.648 8.96 5.648H5.852V11.332H8.96ZM25.8552 22.252C24.3618 22.252 23.0178 21.9253 21.8232 21.272C20.6285 20.6 19.6858 19.6573 18.9952 18.444C18.3232 17.2307 17.9872 15.8307 17.9872 14.244C17.9872 12.6573 18.3325 11.2573 19.0232 10.044C19.7325 8.83067 20.6938 7.89733 21.9072 7.244C23.1205 6.572 24.4738 6.236 25.9672 6.236C27.4605 6.236 28.8138 6.572 30.0272 7.244C31.2405 7.89733 32.1925 8.83067 32.8832 10.044C33.5925 11.2573 33.9472 12.6573 33.9472 14.244C33.9472 15.8307 33.5832 17.2307 32.8552 18.444C32.1458 19.6573 31.1752 20.6 29.9432 21.272C28.7298 21.9253 27.3672 22.252 25.8552 22.252ZM25.8552 18.836C26.5645 18.836 27.2272 18.668 27.8432 18.332C28.4778 17.9773 28.9818 17.4547 29.3552 16.764C29.7285 16.0733 29.9152 15.2333 29.9152 14.244C29.9152 12.7693 29.5232 11.64 28.7392 10.856C27.9738 10.0533 27.0312 9.652 25.9112 9.652C24.7912 9.652 23.8485 10.0533 23.0832 10.856C22.3365 11.64 21.9632 12.7693 21.9632 14.244C21.9632 15.7187 22.3272 16.8573 23.0552 17.66C23.8018 18.444 24.7352 18.836 25.8552 18.836ZM40.7426 8.896C41.2466 8.07467 41.9 7.43067 42.7026 6.964C43.524 6.49733 44.4573 6.264 45.5026 6.264V10.38H44.4666C43.2346 10.38 42.3013 10.6693 41.6666 11.248C41.0506 11.8267 40.7426 12.8347 40.7426 14.272V22H36.8226V6.488H40.7426V8.896ZM52.7069 9.708V17.212C52.7069 17.7347 52.8283 18.1173 53.0709 18.36C53.3323 18.584 53.7616 18.696 54.3589 18.696H56.1789V22H53.7149C50.4109 22 48.7589 20.3947 48.7589 17.184V9.708H46.9109V6.488H48.7589V2.652H52.7069V6.488H56.1789V9.708H52.7069ZM66.1104 9.708H63.3944V22H59.4184V9.708H57.6544V6.488H59.4184V5.704C59.4184 3.8 59.9597 2.4 61.0424 1.504C62.1251 0.607999 63.7584 0.187999 65.9424 0.244V3.548C64.9904 3.52933 64.3277 3.688 63.9544 4.024C63.5811 4.36 63.3944 4.96667 63.3944 5.844V6.488H66.1104V9.708ZM75.5388 22.252C74.0454 22.252 72.7014 21.9253 71.5068 21.272C70.3121 20.6 69.3694 19.6573 68.6788 18.444C68.0068 17.2307 67.6708 15.8307 67.6708 14.244C67.6708 12.6573 68.0161 11.2573 68.7068 10.044C69.4161 8.83067 70.3774 7.89733 71.5908 7.244C72.8041 6.572 74.1574 6.236 75.6508 6.236C77.1441 6.236 78.4974 6.572 79.7108 7.244C80.9241 7.89733 81.8761 8.83067 82.5668 10.044C83.2761 11.2573 83.6308 12.6573 83.6308 14.244C83.6308 15.8307 83.2668 17.2307 82.5387 18.444C81.8294 19.6573 80.8588 20.6 79.6268 21.272C78.4134 21.9253 77.0508 22.252 75.5388 22.252ZM75.5388 18.836C76.2481 18.836 76.9108 18.668 77.5268 18.332C78.1614 17.9773 78.6654 17.4547 79.0388 16.764C79.4121 16.0733 79.5988 15.2333 79.5988 14.244C79.5988 12.7693 79.2068 11.64 78.4228 10.856C77.6574 10.0533 76.7148 9.652 75.5948 9.652C74.4748 9.652 73.5321 10.0533 72.7668 10.856C72.0201 11.64 71.6468 12.7693 71.6468 14.244C71.6468 15.7187 72.0108 16.8573 72.7388 17.66C73.4854 18.444 74.4188 18.836 75.5388 18.836ZM90.4262 1.28V22H86.5062V1.28H90.4262ZM96.2872 4.64C95.5965 4.64 95.0179 4.42533 94.5512 3.996C94.1032 3.548 93.8792 2.99733 93.8792 2.344C93.8792 1.69067 94.1032 1.14933 94.5512 0.719999C95.0179 0.271999 95.5965 0.0479989 96.2872 0.0479989C96.9779 0.0479989 97.5472 0.271999 97.9952 0.719999C98.4619 1.14933 98.6952 1.69067 98.6952 2.344C98.6952 2.99733 98.4619 3.548 97.9952 3.996C97.5472 4.42533 96.9779 4.64 96.2872 4.64ZM98.2192 6.488V22H94.2992V6.488H98.2192ZM108.98 22.252C107.487 22.252 106.143 21.9253 104.948 21.272C103.753 20.6 102.811 19.6573 102.12 18.444C101.448 17.2307 101.112 15.8307 101.112 14.244C101.112 12.6573 101.457 11.2573 102.148 10.044C102.857 8.83067 103.819 7.89733 105.032 7.244C106.245 6.572 107.599 6.236 109.092 6.236C110.585 6.236 111.939 6.572 113.152 7.244C114.365 7.89733 115.317 8.83067 116.008 10.044C116.717 11.2573 117.072 12.6573 117.072 14.244C117.072 15.8307 116.708 17.2307 115.98 18.444C115.271 19.6573 114.3 20.6 113.068 21.272C111.855 21.9253 110.492 22.252 108.98 22.252ZM108.98 18.836C109.689 18.836 110.352 18.668 110.968 18.332C111.603 17.9773 112.107 17.4547 112.48 16.764C112.853 16.0733 113.04 15.2333 113.04 14.244C113.04 12.7693 112.648 11.64 111.864 10.856C111.099 10.0533 110.156 9.652 109.036 9.652C107.916 9.652 106.973 10.0533 106.208 10.856C105.461 11.64 105.088 12.7693 105.088 14.244C105.088 15.7187 105.452 16.8573 106.18 17.66C106.927 18.444 107.86 18.836 108.98 18.836Z" fill="#070F18"/>
<path d="M0 24.8H118.024V26.2H0V24.8Z" fill="#070F18"/>
</svg>
